<?xml version="1.0" standalone="no"?><svg xmlns="http://www.w3.org/2000/svg" viewBox="0 0 1440 320"><path fill="#FBA6AA" fill-opacity="1" d="M0,256L26.7,256C53.3,256,107,256,160,229.3C213.3,203,267,149,320,128C373.3,107,427,117,480,106.7C533.3,96,587,64,640,80C693.3,96,747,160,800,160C853.3,160,907,96,960,106.7C1013.3,117,1067,203,1120,197.3C1173.3,192,1227,96,1280,74.7C1333.3,53,1387,107,1413,133.3L1440,160L1440,0L1413.3,0C1386.7,0,1333,0,1280,0C1226.7,0,1173,0,1120,0C1066.7,0,1013,0,960,0C906.7,0,853,0,800,0C746.7,0,693,0,640,0C586.7,0,533,0,480,0C426.7,0,373,0,320,0C266.7,0,213,0,160,0C106.7,0,53,0,27,0L0,0Z"></path></svg>