<?xml version="1.0" standalone="no"?><svg xmlns="http://www.w3.org/2000/svg" viewBox="0 0 1440 320"><path fill="#FBA6AA" fill-opacity="1" d="M0,32L26.7,69.3C53.3,107,107,181,160,186.7C213.3,192,267,128,320,117.3C373.3,107,427,149,480,181.3C533.3,213,587,235,640,240C693.3,245,747,235,800,208C853.3,181,907,139,960,117.3C1013.3,96,1067,96,1120,106.7C1173.3,117,1227,139,1280,165.3C1333.3,192,1387,224,1413,240L1440,256L1440,0L1413.3,0C1386.7,0,1333,0,1280,0C1226.7,0,1173,0,1120,0C1066.7,0,1013,0,960,0C906.7,0,853,0,800,0C746.7,0,693,0,640,0C586.7,0,533,0,480,0C426.7,0,373,0,320,0C266.7,0,213,0,160,0C106.7,0,53,0,27,0L0,0Z"></path></svg>